<svg width="32" height="32" viewBox="0 0 32 32" fill="none" xmlns="http://www.w3.org/2000/svg">
<g clip-path="url(#clip0_11995_33767)">
<path fill-rule="evenodd" clip-rule="evenodd" d="M9.33333 32H22.6667C28.3333 32 32 28.3333 32 22.6667V9.33333C32 3.66667 28.3333 0 22.6667 0H9.23123C3.66667 0 0 3.66667 0 9.23123V22.6667C0 28.3333 3.66667 32 9.33333 32ZM7.6699 15.2813L7.66989 15.2813C7.44213 15.2055 7.21677 15.1304 6.99391 15.073C5.31632 14.6414 5.60234 12.8875 5.75943 12.4068C7.28586 7.75021 12.1319 6.19288 16.0428 5.77667C19.7255 5.38504 23.5787 5.6876 27.168 6.72274L27.1956 6.7303C27.4714 6.80566 28.1261 6.9846 27.9786 7.40004C27.8843 7.66595 27.6856 7.65292 26.622 7.58319C25.9656 7.54015 24.9796 7.4755 23.4853 7.4415C22.1945 7.41232 20.9052 7.49679 19.6114 7.70259C17.3914 8.05276 15.1092 8.77921 13.2745 10.312C12.3898 11.0538 11.6117 11.9998 11.0916 13.1179C10.9552 13.4112 10.8485 13.7046 10.7566 13.9979C10.7519 14.0138 10.7464 14.033 10.7401 14.055C10.624 14.4628 10.2291 15.8501 8.66558 15.5645L8.66409 15.5629C8.32797 15.5005 7.99647 15.3901 7.6699 15.2813ZM14.7302 16.5778L14.7303 16.5778L14.7304 16.5778L14.7304 16.5778L14.7305 16.5778L14.7306 16.5778L14.7306 16.5778C14.892 16.5947 15.0456 16.6108 15.1821 16.6275V16.629C15.9432 16.7153 16.213 15.9652 16.313 15.6873C16.3251 15.6535 16.3348 15.6267 16.3425 15.6092C17.0183 13.754 18.0156 12.5007 19.4472 11.6821C20.8995 10.8466 22.8513 10.4612 25.5929 10.4612L25.6352 10.4613L25.6801 10.4616C26.0761 10.4644 26.7963 10.4695 26.7963 10.0833C26.7963 9.33333 23.1654 9.33333 22.6667 9.33333C19.9754 9.33333 17.2909 9.98659 15.5392 11.0386C14.6056 11.6007 13.8794 12.2919 13.3741 13.0782C12.968 13.7202 12.7042 14.4113 12.6049 15.1577C12.5694 15.4065 12.5471 16.1698 13.3667 16.3787C13.7412 16.4743 14.2679 16.5294 14.7302 16.5778ZM18.9848 21.2518C19.4265 21.6158 19.96 21.8017 20.5587 21.8017V21.8032C21.0937 21.7863 21.1574 21.4069 20.901 21.2856C20.4742 21.0829 19.9185 20.639 19.797 19.6208C19.7822 19.5071 19.6903 19.0541 19.3761 19.0464C19.0619 19.0464 18.4143 19.0541 18.4143 19.0541C18.4143 19.0541 18.0156 19.0541 18.023 19.4334C18.0379 20.1844 18.4573 20.8233 18.9848 21.2518ZM17.5739 24.2834C16.2135 24.3126 14.9316 23.6752 13.9609 22.5633C13.1384 21.6219 12.6434 20.6727 12.5515 19.4548C12.4952 18.6593 12.8346 18.3843 13.2955 18.432C13.3731 18.4398 13.4907 18.4487 13.6324 18.4593L13.6326 18.4594L13.6336 18.4594L13.6339 18.4594L13.6344 18.4595L13.6345 18.4595C14.0742 18.4926 14.7445 18.5431 15.1731 18.6347C15.5985 18.7238 15.8815 18.968 15.9526 19.4702C16.3276 22.1486 17.9578 23.2022 18.9285 23.4295C19.0989 23.4694 19.2041 23.5831 19.1982 23.7874C19.1908 23.9824 19.0826 24.2496 17.5754 24.2819L17.5739 24.2834ZM11.6069 26.4685C11.9568 26.535 12.819 26.6989 13.6986 26.6611L13.7 26.6626C15.1776 26.5981 15.3333 26.1667 15.3333 26C15.3333 25.7781 15.1771 25.6667 14.8333 25.6667C13.3333 25.6667 10.1729 23.2531 10.1729 19.4765C10.1729 18.8146 9.76836 18.1449 8.93105 17.9023L8.75451 17.8494L8.75447 17.8494C8.09752 17.6521 7.24844 17.3972 6.69624 17.3663C5.24394 17.2748 5.31103 18.4718 5.34688 19.1111L5.34764 19.1248C5.48843 21.8033 6.6666 24.0655 8.61835 25.3464C9.43344 25.8824 10.3849 26.2433 11.5201 26.4522C11.5439 26.4566 11.573 26.4621 11.6069 26.4685ZM23.8333 12.8333C19.5 12.8333 18.3668 15.0042 18.0526 16.4617C17.9116 17.1423 18.2992 17.2126 18.6769 17.2812L18.7225 17.2895C19.2812 17.3847 19.7272 17.3048 19.9228 16.7719C20.5305 15.1163 21.3669 13.5 24 13.5C24.2668 13.5 24.5 13.3333 24.5 13.1666C24.5 13 24.3333 12.8333 23.8333 12.8333Z" fill="black"/>
</g>
<defs>
<clipPath id="clip0_11995_33767">
<rect width="32" height="32" fill="white"/>
</clipPath>
</defs>
</svg>
