<svg width="38" height="38" xmlns="http://www.w3.org/2000/svg">

 <g stroke="none" stroke-width="1" fill="none" fill-rule="evenodd">
  <path id="svg_2" fill="#ffffff" d="m30.02475119516184,20.854582635897398 c-8.463609158992767,0 -10.765710850238799,2.0795318105399607 -10.765710850238799,5.026901286149025 c0,0 0.7109059257507324,0.10467773383855822 0.9479242258071899,0.1346326828300953 c-0.06770887327194215,0.4487975544512273 -0.05080027675628664,0.9126055009245874 -0.03389168024063111,1.3614030553758143 c-0.2877440896034241,-0.029889113938808446 -0.5924712629318237,-0.07478861989974978 -0.8971239490509034,-0.10467773383855822 c0,3.007147703486681 1.8450481748580931,4.42846065684557 5.738345631599427,4.42846065684557 c0.9309411420822143,0 3.0130076169967652,-0.3740747696042061 3.0130076169967652,-0.8378168810248374 c0,-0.4189084405124188 -4.824238598823547,1.34645849840641 -4.824238598823547,-3.5307997128903867 c0,-6.253737493747473 9.953204370975493,-5.326121600800753 9.953204370975493,-5.849773610204458 c0.01690859651565552,-0.5086416173815728 -2.0312661981582645,-0.6283297432422638 -3.131516767024994,-0.6283297432422638 zm-5.856854781627655,10.352957051897048 c-2.623737461090088,0 -4.231767335891724,-1.5559456361889838 -4.231767335891724,-3.3662120810687544 l2.149700860977173,0.1795321887910366 c0,2.5134506430745125 2.1666839447021484,3.1866798922777173 2.0820664749145505,3.1866798922777173 zm-1.9973745179176332,-5.520598346561194 l-2.302101691246033,-0.20942130272984508 c0,-2.7378823378264903 3.3007517066001895,-4.1591952911853785 9.682368877887725,-4.1591952911853785 c-2.8945729541778564,0 -7.380267186641692,1.4961015732586385 -7.380267186641692,4.368616593915224 z"/>
  <path id="svg_3" fill="#ffffff" d="m24.79627051135828,17.742823033624887 c-7.00783114004135,0 -13.91413621377945,2.0496426966011527 -13.91413621377945,7.7198841180145745 c0,0 1.0663588886260986,0.1346326828300953 1.421886338710785,0.16458763182163239 c-0.10160055351257326,0.6881738061726094 -0.06770887327194215,1.4063025613367557 -0.01698308372497559,2.094476367509365 l-1.3541774654388428,-0.16452179676890374 c0,2.767771451765299 1.9128315353393555,6.717479605168104 7.921938172817231,6.717479605168104 c0.9649073095321656,0 5.518310415267945,-0.7330733121335506 5.518310415267945,-1.2268362075984478 c0,-0.4038980484902859 -1.0664333758354188,-0.1795321887910366 -1.421886338710785,-0.1795321887910366 c-4.824238598823547,0 -5.924563654899598,-3.0370368174254896 -5.924563654899598,-5.266277537870407 c0,-2.902404134595394 0.9479242258071899,-8.542690607017278 16.45325620508194,-8.542690607017278 c0.1862180233001709,0 1.2864685921669008,0.16458763182163239 1.2864685921669008,-0.32917526364326477 c0,-0.4936970604121686 -5.111982688426972,-0.987394120824337 -9.97011296749115,-0.987394120824337 zm-4.705729448795319,15.933465296441318 c-0.5924712629318237,0.07478861989974978 -1.2187597188949586,0.11968812586069108 -1.8112309818267822,0.11968812586069108 c-3.859405776500702,0 -6.703178453922272,-2.857570463687182 -6.703178453922272,-5.655296864444018 l3.8424971799850463,0.3142307066738606 c0,0 0.2877440896034241,1.3913580043673515 0.40625323963165283,1.7055228759884835 c0.1523263430595398,0.4039638835430146 0.3385443663597107,0.7929173750638963 0.5754881792068481,1.1669921446681024 c0.8125064792633057,1.2567253215372562 2.115883667945862,2.0645872535705565 3.690170836925507,2.34886301125288 zm-4.536494509220123,-8.24353612741828 l-4.079515480041504,-0.3889534915208817 c0,-4.398571542906762 6.093798594474792,-6.867122680020332 13.541774654388428,-6.867122680020332 c2.776063804149628,0 5.416709861755371,0.29922031465172766 5.416709861755371,0.29922031465172766 c0,0 -14.878969036102296,0.568551515364647 -14.878969036102296,6.9568558568894865 z"/>
  <path id="svg_4" fill="#ffffff" d="m19.076919118135475,13 c-10.867236916542053,0 -18.82301462855339,3.62053288975954 -18.82301462855339,10.05380257229805 c0,0 1.5573040852546691,0.3440539855599404 2.0651206347942352,0.4487975544512273 c-0.2369810564517975,1.0322936267852783 -0.30468992972373965,2.094542202562094 -0.32161342368125917,3.1418462213695046 l-1.9974117615222933,-0.4189084405124188 c0,10.47264517775774 8.07426451587677,10.861664504331351 12.644576218128204,10.861664504331351 c2.725338014602661,0 7.211032247066497,-0.5984406293034553 7.211032247066497,-1.1669921446681024 c0,-0.3440539855599404 -0.6770887327194214,-0.14957723979949955 -2.149775348186493,-0.14957723979949955 c-1.2864685921669008,0 -8.86986239862442,-0.26933120071291927 -8.86986239862442,-7.929305420744419 c0,-9.919169889467955 9.445425065040588,-12.103445268899202 22.32701958322525,-12.103445268899202 c4.333293402194977,0 5.3320179047584535,0.8228064890027046 5.3320179047584535,0.07478861989974978 c0.01690859651565552,-0.8976609439551831 -9.039097338199616,-2.8126709577262403 -17.418089027404786,-2.8126709577262403 zm-4.367185082435609,23.65334941445589 c-4.09642407655716,0 -14.151139616394044,0.6133851862728597 -14.151139616394044,-9.784537206637859 c1.8789175089359285,0.4189084405124188 3.994816074323654,0.8378168810248374 6.076860203075409,1.0622485757768154 c0.016930942678451542,8.004159875696898 8.074279413318633,8.722288630861044 8.074279413318633,8.722288630861044 zm11.37509070968628,-22.007670601397752 c-18.70457251701355,0 -19.00926244673729,9.245940640264749 -19.00926244673729,9.245940640264749 c0,0 -4.079448441553116,-0.6732950842559338 -6.144569076347351,-1.1968812586069106 c-0.08463236722946169,0 -0.016923493957519534,-9.111242122381926 18.60297941222191,-9.111242122381926 c7.329466909885406,0 12.102905231952667,1.1818708665847777 12.102905231952667,1.1818708665847777 c-1.5065038084983826,-0.08973317686915398 -3.876314373016357,-0.11968812586069108 -5.552053121089935,-0.11968812586069108 z"/>
 </g>
</svg>
